<svg xmlns="http://www.w3.org/2000/svg"  viewBox="0 0 28 28" width="448px" height="448px"><path fill="#ffab66" d="m2.16 16.954-.513-10.618c0-2.843 2.349-5.168 5.221-5.168l13.238.776c2.871 0 5.221 2.326 5.221 5.168l.266 13.556c0 2.843-2.349 5.168-5.221 5.168l-8.441.789c-5.374.002-9.771-4.351-9.771-9.671z"/><path fill="#deff8f" d="m12.289 9.069c-4.494.54-7.691 5.735-5.856 9.52s7.091.676 10.313 1.256 7.461.68 5.571-4.073-5.663-7.227-10.028-6.703z"/><path d="m24.5 26h-21c-.827 0-1.5-.673-1.5-1.5v-21c0-.827.673-1.5 1.5-1.5h21c.827 0 1.5.673 1.5 1.5v21c0 .827-.673 1.5-1.5 1.5zm-21-23c-.275 0-.5.225-.5.5v21c0 .275.225.5.5.5h21c.275 0 .5-.225.5-.5v-21c0-.275-.225-.5-.5-.5z"/><path d="m18.006 21c-.149 0-.293-.067-.388-.185l-.927-1.141c-.045-.056-.077-.119-.096-.187-.729.17-1.594.284-2.596.284s-1.866-.114-2.596-.284c-.019.067-.051.131-.096.187l-.927 1.141c-.104.128-.257.195-.43.183-2.602-.218-4.103-.965-4.723-2.35-.452-1.006-.292-4.717 1.104-6.948 2.082-3.33 5.076-3.223 5.42-3.194h4.514c.09-.011 3.237-.265 5.4 3.195 1.396 2.23 1.556 5.941 1.104 6.948-.62 1.384-2.121 2.131-4.723 2.349-.012.001-.026.002-.04.002zm-.208-1.549.428.526c2.674-.272 3.354-1.117 3.633-1.737.32-.714.172-4.073-1.039-6.009-1.84-2.942-4.478-2.737-4.506-2.728l-4.58.002c-.015 0-.029-.001-.045-.002-.105-.008-2.682-.193-4.508 2.727-1.211 1.937-1.359 5.296-1.039 6.009.278.621.959 1.466 3.633 1.738l.428-.526-1.374-1.009c-.322-.208-.492-.362-.514-.383-.194-.181-.214-.48-.045-.685.168-.206.469-.242.681-.085l.417.307c.654.419 2.178 1.176 4.633 1.176 2.456 0 3.98-.759 4.635-1.177l.415-.306c.213-.156.513-.121.681.085.169.204.149.504-.045.685-.021.021-.191.175-.514.383z"/><path d="m17 16c-1.103 0-2-.897-2-2s.897-2 2-2 2 .897 2 2-.897 2-2 2zm0-3c-.552 0-1 .448-1 1s.448 1 1 1 1-.448 1-1-.448-1-1-1z"/><path d="m11 16c-1.103 0-2-.897-2-2s.897-2 2-2 2 .897 2 2-.897 2-2 2zm0-3c-.552 0-1 .448-1 1s.448 1 1 1 1-.448 1-1-.448-1-1-1z"/></svg>