<svg xmlns="http://www.w3.org/2000/svg"  viewBox="0 0 36 36" width="288px" height="288px"><path fill="#efefef" d="m1.003 14.311c3.253 6.104 2.324 11.981 3.891 14.923s6.551 8.218 20.083 1.008 11.09-16.579 9.365-19.815c-8.072-15.151-39.1-6.927-33.339 3.884z"/><path fill="#a4afc1" d="m28.279 2.409h2v1h-2z" transform="rotate(-88.321 29.279 2.91)"/><path fill="#a4afc1" d="m31.448 4.739h1v2h-1z" transform="rotate(-88.321 31.947 5.74)"/><path fill="#a4afc1" d="m2.899 29.75c-.827 0-1.5-.673-1.5-1.5s.673-1.5 1.5-1.5 1.5.673 1.5 1.5-.672 1.5-1.5 1.5zm0-2c-.275 0-.5.225-.5.5s.225.5.5.5.5-.225.5-.5-.224-.5-.5-.5z"/><path fill="#f3f3f1" d="m28.25 6.75h-20.5c-.552 0-1 .448-1 1v20.5c0 .552.448 1 1 1h20.5c.552 0 1-.448 1-1v-20.5c0-.552-.448-1-1-1zm-2.116 15.591c-.373.832-1.267 1.764-4.215 2.011l-.907-1.116 1.82-1.337c-.678.447-2.249 1.252-4.831 1.252-2.583 0-4.154-.805-4.832-1.252l1.82 1.337-.907 1.116c-2.948-.247-3.842-1.18-4.215-2.011-.373-.832-.238-4.281 1.048-6.338 1.981-3.167 4.868-2.895 4.868-2.895h4.435s2.887-.272 4.868 2.895c1.286 2.057 1.421 5.507 1.048 6.338z"/><path fill="#2fdf84" d="m25.086 16.004c-1.981-3.167-4.868-2.895-4.868-2.895h-4.435s-2.887-.272-4.868 2.895c-1.286 2.056-1.421 5.506-1.048 6.338s1.267 1.764 4.215 2.011l.907-1.116-1.82-1.337c.678.447 2.249 1.252 4.832 1.252s4.154-.805 4.831-1.252l-1.82 1.337.907 1.116c2.948-.247 3.842-1.18 4.215-2.011.373-.832.238-4.282-1.048-6.338zm-10.021 3.463c-.81 0-1.467-.657-1.467-1.467s.657-1.467 1.467-1.467 1.467.657 1.467 1.467-.656 1.467-1.467 1.467zm5.87 0c-.81 0-1.467-.657-1.467-1.467s.657-1.467 1.467-1.467 1.467.657 1.467 1.467-.657 1.467-1.467 1.467z"/><path fill="#d5dbe1" d="m14.988 23.237-.629.774c.529.153 1.169.274 1.972.342l.907-1.116-.165-.121c-2.037-.161-3.312-.826-3.905-1.216z"/><path fill="#d5dbe1" d="m20.25 23.152c.325 0 .633-.013.927-.036l1.655-1.216c-.572.377-1.79 1.005-3.707 1.193.354.034.723.059 1.125.059z"/><path fill="#d5dbe1" d="m17.677 13.109h.356c-.001 0-.135-.011-.356 0z"/><path fill="#d5dbe1" d="m9 28.25v-20.5c0-.552.448-1 1-1h-2.25c-.552 0-1 .448-1 1v20.5c0 .552.448 1 1 1h2.25c-.552 0-1-.448-1-1z"/><path fill="#d5dbe1" d="m27.336 16.004c-1.981-3.167-4.868-2.895-4.868-2.895h-1.894c.828.04 2.95.396 4.513 2.895 1.286 2.056 1.421 5.506 1.048 6.338-.271.605-.829 1.26-2.243 1.669l.278.342c2.948-.247 3.842-1.18 4.215-2.011.372-.832.237-4.282-1.049-6.338z"/><g fill="#00b871"><path d="m17.315 19.467c.81 0 1.467-.657 1.467-1.467s-.657-1.467-1.467-1.467c-.455 0-.856.211-1.125.536.211.254.342.576.342.932s-.132.678-.342.932c.269.323.671.534 1.125.534z"/><path d="m24.652 18c0-.81-.657-1.467-1.467-1.467-.455 0-.856.211-1.125.536.211.254.342.576.342.932s-.132.678-.342.932c.269.325.67.536 1.125.536.81-.002 1.467-.659 1.467-1.469z"/><path d="m20.218 13.109h.356c-.222-.011-.356 0-.356 0z"/><path d="m15.418 21.9 1.655 1.216c.293.023.602.036.927.036.402 0 .771-.025 1.125-.059-1.917-.188-3.135-.816-3.707-1.193z"/><path d="m23.262 23.237 1.82-1.337c-.592.391-1.868 1.055-3.905 1.216l-.165.121.907 1.116c.803-.067 1.443-.189 1.972-.342z"/><path d="m12.116 22.341c-.373-.832-.238-4.281 1.048-6.338 1.563-2.499 3.685-2.855 4.513-2.895h-1.894s-2.887-.272-4.868 2.895c-1.286 2.056-1.421 5.506-1.048 6.338s1.267 1.764 4.215 2.011l.278-.342c-1.415-.408-1.973-1.063-2.244-1.669z"/></g><path d="m21.919 25.103c-.225 0-.438-.101-.582-.276l-.907-1.115c-.013-.017-.024-.032-.036-.049-.688.146-1.485.24-2.394.24s-1.705-.095-2.394-.24c-.012.017-.023.032-.036.049l-.907 1.115c-.157.191-.402.297-.645.273-2.65-.222-4.188-1.001-4.837-2.451-.473-1.055-.335-4.754 1.097-7.042 2.09-3.34 5.119-3.277 5.53-3.248h4.409c.066-.009 3.302-.271 5.504 3.248 1.432 2.288 1.569 5.987 1.097 7.042-.649 1.45-2.187 2.229-4.837 2.451-.02.002-.042.003-.062.003zm.172-1.728.156.192c2.365-.266 2.962-.994 3.202-1.532.247-.551.179-3.75-.999-5.634-1.716-2.741-4.137-2.552-4.162-2.546l-4.506.003c-.021 0-.043-.001-.065-.003-.11-.007-2.477-.158-4.167 2.546-1.178 1.884-1.246 5.083-.999 5.634.24.538.837 1.267 3.202 1.532l.156-.192-1.136-.834c-.321-.209-.491-.363-.514-.384-.291-.271-.32-.722-.067-1.028.255-.307.702-.36 1.022-.126l.406.299c.61.388 2.051 1.101 4.379 1.101 2.333 0 3.773-.716 4.384-1.104l.401-.295c.319-.234.767-.183 1.022.126.253.307.224.758-.067 1.028-.022.021-.192.175-.514.384z"/><path d="m20.935 20.218c-1.223 0-2.217-.995-2.217-2.218s.994-2.218 2.217-2.218 2.218.995 2.218 2.218-.996 2.218-2.218 2.218zm0-2.936c-.396 0-.717.322-.717.718s.321.718.717.718.718-.322.718-.718-.323-.718-.718-.718z"/><path d="m15.065 20.218c-1.223 0-2.218-.995-2.218-2.218s.995-2.218 2.218-2.218 2.217.995 2.217 2.218-.994 2.218-2.217 2.218zm0-2.936c-.396 0-.718.322-.718.718s.322.718.718.718.717-.322.717-.718-.321-.718-.717-.718z"/><path d="m28.25 30h-20.5c-.965 0-1.75-.785-1.75-1.75v-20.5c0-.965.785-1.75 1.75-1.75h20.5c.965 0 1.75.785 1.75 1.75v20.5c0 .965-.785 1.75-1.75 1.75zm-20.5-22.5c-.138 0-.25.112-.25.25v20.5c0 .138.112.25.25.25h20.5c.138 0 .25-.112.25-.25v-20.5c0-.138-.112-.25-.25-.25z"/></svg>