<svg xmlns="http://www.w3.org/2000/svg"  viewBox="0 0 36 36" width="288px" height="288px"><path fill="#efefef" d="m8.377 4.167c6.917 0 11.667-3.583 15-3.583s10.333 1.916 10.333 17.249-9.417 17.583-13.083 17.583c-17.167.001-24.5-31.249-12.25-31.249z"/><g fill="#a4afc1"><path d="m31 7.122c-.827 0-1.5-.673-1.5-1.5s.673-1.5 1.5-1.5 1.5.673 1.5 1.5-.673 1.5-1.5 1.5zm0-2c-.275 0-.5.224-.5.5s.225.5.5.5.5-.224.5-.5-.225-.5-.5-.5z"/><path d="m5.677 25.101h1v2h-1z" transform="rotate(-45.001 6.177 26.101)"/><path d="m9.743 29.166h1v2.001h-1z" transform="rotate(-45.009 10.243 30.168)"/><path d="m5 29.667h2v1h-2z" transform="rotate(-45.001 6 30.167)"/><path d="m9.066 25.601h2v1h-2z" transform="rotate(-45.001 10.066 26.101)"/></g><path fill="#f3f3f1" d="m27.25 10.22v8.03c0 1.1-.9 2-2 2h-17c-.83 0-1.5-.67-1.5-1.5v-8.53l9.41 4.66c.52.26 1.16.26 1.68 0z"/><path fill="#2fdf84" d="m27.25 9.25v.97l-9.41 4.66c-.52.26-1.16.26-1.68 0l-9.41-4.66v-.97c0-.83.67-1.5 1.5-1.5h17.5c.83 0 1.5.67 1.5 1.5z"/><path fill="#d5dbe1" d="m9 18.75v-7.416l-2.25-1.114v8.53c0 .83.67 1.5 1.5 1.5h2.25c-.83 0-1.5-.67-1.5-1.5z"/><path fill="#00b871" d="m9 9.731v-.481c0-.83.67-1.5 1.5-1.5h-2.25c-.83 0-1.5.67-1.5 1.5v.97l9.41 4.66c.52.26 1.16.26 1.68 0l.285-.63z"/><path d="m23.5 27c-1.93 0-3.5-1.57-3.5-3.5s1.57-3.5 3.5-3.5 3.5 1.57 3.5 3.5-1.57 3.5-3.5 3.5zm0-5.5c-1.103 0-2 .897-2 2s.897 2 2 2 2-.897 2-2-.897-2-2-2z"/><path d="m23.5 30c-1.966 0-3.805-.875-5.046-2.402s-1.718-3.527-1.31-5.488c.513-2.458 2.508-4.453 4.965-4.965 1.959-.407 3.962.069 5.488 1.31 1.527 1.24 2.403 3.08 2.403 5.045v1.25c0 1.241-1.01 2.25-2.25 2.25s-2.25-1.009-2.25-2.25v-4h1.5v4c0 .414.337.75.75.75s.75-.336.75-.75v-1.25c0-1.512-.674-2.927-1.849-3.882-1.175-.956-2.719-1.323-4.235-1.005-1.882.392-3.41 1.92-3.803 3.803-.316 1.518.05 3.062 1.005 4.236s2.37 1.848 3.882 1.848z"/><path d="m15.25 21h-7c-1.24 0-2.25-1.009-2.25-2.25v-9.5c0-1.241 1.01-2.25 2.25-2.25h17.5c1.24 0 2.25 1.009 2.25 2.25v6h-1.5v-6c0-.414-.337-.75-.75-.75h-17.5c-.413 0-.75.336-.75.75v9.5c0 .414.337.75.75.75h7z"/><path d="m17.001 15.827c-.404 0-.809-.092-1.177-.277l-9.407-4.658.666-1.344 9.41 4.66c.311.155.706.155 1.011.001l9.413-4.661.666 1.344-9.41 4.66c-.366.183-.769.275-1.172.275z"/></svg>