<svg xmlns="http://www.w3.org/2000/svg"  viewBox="0 0 36 36" width="288px" height="288px"><path fill="#EFEFEF" d="M34.904,20.355c-3.782-5.791-3.38-11.727-5.203-14.518c-1.823-2.791-7.256-7.603-20.093,0.782	s-9.572,17.5-7.566,20.569C11.43,41.56,41.603,30.611,34.904,20.355z"/><rect width="2" height="1" x="7.033" y="8.946" fill="#A4AFC1" transform="rotate(-45.001 8.033 9.446)"/><rect width="2" height="1" x="2.967" y="13.012" fill="#A4AFC1" transform="rotate(-45.001 3.967 13.512)"/><rect width="1" height="2" x="3.467" y="8.27" fill="#A4AFC1" transform="rotate(-45.001 3.967 9.27)"/><path fill="#A4AFC1" d="M31,26.75c-0.827,0-1.5-0.673-1.5-1.5s0.673-1.5,1.5-1.5s1.5,0.673,1.5,1.5S31.827,26.75,31,26.75z M31,24.75c-0.275,0-0.5,0.224-0.5,0.5s0.225,0.5,0.5,0.5s0.5-0.224,0.5-0.5S31.275,24.75,31,24.75z"/><path fill="#2FDF84" d="M17.397,24.679c0.053-0.194,0-0.825,0-1.043l-0.046-1.331c-1.895-0.077-3.938,0.293-3.938,1.991	c0,0.367,0.159,0.699,0.399,0.955h3.105C17.15,25.121,17.325,24.945,17.397,24.679z"/><path fill="#2FDF84" d="M21.765,11.75l-0.317,2.148l2.369,0.784l0.033,2.207l2.064,0.036l-0.049,2.045h0.001l2.763-0.105 c0.003-0.691,0.081-5.322,0.621-7.115H21.765z"/><path fill="#F3F3F1" d="M10.584,23.757c0-0.068,0.002-0.136,0.005-0.204v0.01c0.139-3.336,3.937-3.908,6.789-3.826v-0.961	c-0.047-0.775-0.694-1.461-2.569-1.461c-1.25,0-2.733,0.156-3.693,0.492l0.255-2.17c0.917-0.252,1.95-0.496,4.175-0.496	c4.286,0,4.76,1.847,4.725,3.989l-0.02,6.12h2.414c3.097,0,5.645-3.451,5.965-6.384l-2.763,0.105h-0.001l0.049-2.045l-2.064-0.036	l-0.033-2.207l-2.369-0.784l0.317-2.148h-8.841c-3.579,0-6.174,2.96-6.174,6.204v7.296h3.859	C10.593,25.103,10.584,23.931,10.584,23.757z"/><path fill="#00B871" d="M17.358,22.503l-0.007-0.198c-1.895-0.077-3.938,0.293-3.938,1.991c0,0.367,0.158,0.699,0.399,0.955h2.25	c-0.241-0.256-0.399-0.588-0.399-0.955C15.663,23.292,16.383,22.76,17.358,22.503z"/><polygon fill="#00B871" points="28.164,16.925 26.1,16.889 26.067,14.682 23.698,13.898 24.015,11.75 21.765,11.75 21.448,13.898 23.817,14.682 23.85,16.889 25.914,16.925 25.865,18.97 25.866,18.97 28.117,18.885"/><path fill="#D5DBE1" d="M13.415,17.383l-0.05,0.424c0.62-0.218,1.459-0.352,2.312-0.425c-0.258-0.039-0.538-0.067-0.869-0.067 C14.361,17.315,13.887,17.342,13.415,17.383z"/><path fill="#D5DBE1" d="M28.115,18.97h0.001l0.5-0.019c0.004-0.028,0.01-0.057,0.013-0.086l-0.512,0.02L28.115,18.97z"/><path fill="#D5DBE1" d="M15.174,11.75h-2.25c-3.579,0-6.174,2.96-6.174,6.204v7.296H9v-7.296C9,14.71,11.594,11.75,15.174,11.75z"/><path fill="#D5DBE1" d="M17.795,15.141c-0.502,0-0.937,0.014-1.33,0.036c3.429,0.255,3.837,1.976,3.805,3.953l-0.02,6.12h2.25 l0.02-6.12C22.555,16.988,22.082,15.141,17.795,15.141z"/><g><path d="M29.379,18.869l-1.5-0.007c0-0.045,0.022-3.972,0.436-6.362h-6.55V11h7.485c0.237,0,0.46,0.112,0.602,0.303 s0.185,0.437,0.116,0.664C29.505,13.506,29.385,17.568,29.379,18.869z"/></g><g><path d="M22.665,26h-2.414c-0.199,0-0.391-0.08-0.531-0.221s-0.22-0.333-0.219-0.532l0.02-6.12c0.02-1.218-0.158-1.898-0.611-2.359 c-0.573-0.582-1.705-0.877-3.364-0.877c-1.728,0-2.698,0.151-3.489,0.343l-0.068,0.576c0.829-0.157,1.816-0.245,2.821-0.245 c2.876,0,3.277,1.515,3.317,2.166l0.001,1.006c0,0.203-0.082,0.396-0.228,0.538c-0.145,0.141-0.344,0.222-0.544,0.211 c-2.686-0.075-5.906,0.401-6.019,3.108c0,0,0,0.001,0,0.002l-0.003,0.16c0,0.163,0.007,1.235,0.021,1.422 c0.016,0.208-0.056,0.42-0.197,0.574C11.016,25.906,10.817,26,10.608,26H6.75C6.336,26,6,25.664,6,25.25v-7.295 C6,14.12,9.106,11,12.924,11h8.841c0.218,0,0.425,0.095,0.567,0.26s0.206,0.384,0.175,0.6l-0.225,1.524l1.771,0.586 c0.304,0.1,0.51,0.381,0.515,0.701l0.021,1.481l1.339,0.023c0.199,0.003,0.39,0.087,0.527,0.231 c0.139,0.144,0.214,0.337,0.209,0.537l-0.03,1.247l1.967-0.074c0.226-0.005,0.429,0.079,0.577,0.238s0.221,0.375,0.196,0.592 C29.012,22.283,26.166,26,22.665,26z M21.003,24.5h1.662c2.309,0,4.422-2.445,5.056-4.85l-1.826,0.069 c-0.2,0.009-0.407-0.069-0.555-0.215c-0.147-0.146-0.229-0.345-0.224-0.552l0.03-1.291l-1.311-0.023 c-0.404-0.007-0.73-0.334-0.736-0.739l-0.024-1.673l-1.862-0.616c-0.346-0.114-0.56-0.461-0.507-0.821l0.19-1.289h-7.973 c-2.99,0-5.424,2.447-5.424,5.455V24.5h2.34c-0.005-0.377-0.006-0.736-0.006-0.743l0.004-0.226 c0.001-0.013,0.001-0.026,0.003-0.039c0.141-2.871,2.54-4.458,6.786-4.512v-0.205c-0.038-0.613-1.156-0.711-1.818-0.711 c-1.313,0-2.665,0.177-3.445,0.45c-0.244,0.088-0.515,0.04-0.717-0.122c-0.202-0.162-0.307-0.416-0.276-0.673l0.255-2.17 c0.036-0.303,0.252-0.555,0.547-0.636c1.002-0.275,2.092-0.523,4.373-0.523c2.105,0,3.556,0.434,4.434,1.325 c0.951,0.966,1.061,2.274,1.042,3.426L21.003,24.5z"/></g><g><path d="M16.918,26h-3.105c-0.207,0-0.404-0.085-0.546-0.235c-0.389-0.413-0.604-0.935-0.604-1.469c0-0.681,0.248-1.279,0.719-1.73 c0.777-0.747,2.124-1.087,3.999-1.01c0.393,0.016,0.706,0.332,0.72,0.724l0.046,1.332c0,0.08,0.004,0.164,0.009,0.26 c0.021,0.456,0.028,0.771-0.035,1.006l0,0c-0.12,0.44-0.401,0.787-0.837,1.029C17.171,25.967,17.046,26,16.918,26z M14.203,24.5 h2.464v0c0.015-0.138-0.002-0.375-0.011-0.562c-0.005-0.124-0.01-0.231-0.01-0.301l-0.021-0.587 c-1.046,0.03-1.832,0.24-2.206,0.599c-0.178,0.171-0.257,0.371-0.257,0.648C14.163,24.37,14.179,24.438,14.203,24.5z M16.673,24.482L16.673,24.482L16.673,24.482z"/></g></svg>