<svg xmlns="http://www.w3.org/2000/svg"  viewBox="0 0 28 28" width="448px" height="448px"><path fill="#FFA0C6" d="M25.344,8.369c2.071,2.109-1.027,8.4-2.898,10.23c-1.871,1.83-17.191,2.851-18.338,0.663	s-1.138-9.431,0-10.893S23.273,6.259,25.344,8.369z"/><path d="M24.865,15.4c-0.001,0-0.001,0-0.002,0c-0.276-0.001-0.499-0.226-0.498-0.502c0-0.049,0.032-4.521,0.502-6.898h-7.019 c-0.276,0-0.5-0.224-0.5-0.5s0.224-0.5,0.5-0.5H25.5c0.157,0,0.307,0.074,0.4,0.201c0.095,0.126,0.124,0.29,0.079,0.441 c-0.484,1.637-0.608,5.897-0.614,7.261C25.364,15.178,25.141,15.4,24.865,15.4z"/><path d="M18.769,20.999h-2.468c-0.133,0-0.261-0.053-0.354-0.147s-0.146-0.222-0.146-0.355l0.02-5.323 c0.016-0.994-0.06-2-0.716-2.667c-0.649-0.66-1.831-0.98-3.614-0.98c-1.93,0-2.951,0.185-3.81,0.41l-0.136,1.177 c1.028-0.236,2.262-0.326,3.192-0.326c2.714,0,3.09,1.392,3.125,1.99l0.001,1.029c0,0.135-0.055,0.265-0.151,0.359 c-0.098,0.094-0.224,0.134-0.363,0.141c-2.348-0.073-6.294,0.294-6.425,3.5c-0.001,0.003-0.001,0.006-0.001,0.009l-0.004,0.172 c0,0.163,0.009,0.323,0.022,0.461c0.015,0.141-0.031,0.281-0.126,0.386s-0.229,0.165-0.371,0.165H2.5c-0.276,0-0.5-0.224-0.5-0.5 v-6.546C2,10.119,5.056,7,8.811,7h9.038c0.146,0,0.283,0.063,0.378,0.173s0.138,0.255,0.117,0.399l-0.265,1.821l2.026,0.682 c0.201,0.068,0.338,0.255,0.341,0.467l0.026,1.812l1.626,0.029c0.133,0.002,0.26,0.058,0.352,0.154 c0.093,0.096,0.143,0.225,0.14,0.358l-0.037,1.595l2.293-0.088c0.14-0.019,0.285,0.051,0.385,0.158 c0.1,0.106,0.147,0.25,0.132,0.395C25,18.344,22.104,20.999,18.769,20.999z M16.803,19.999h1.966c2.64,0,4.957-1.968,5.508-4.576 l-2.216,0.085c-0.146,0.003-0.271-0.046-0.37-0.143s-0.152-0.23-0.149-0.368l0.037-1.624l-1.607-0.029 c-0.27-0.005-0.487-0.223-0.491-0.493l-0.028-1.942l-2.086-0.702c-0.229-0.077-0.37-0.307-0.336-0.546L17.271,8h-8.46 C5.606,8,3,10.67,3,13.953v6.046h2.919c0-0.004,0-0.008,0-0.012l0.005-0.233c0.001-0.007,0.001-0.015,0.002-0.022 c0.137-2.878,2.599-4.471,6.938-4.433v-0.492c-0.051-0.837-1.185-1.02-2.126-1.02c-1.39,0-2.771,0.185-3.607,0.483 c-0.163,0.057-0.345,0.028-0.479-0.079c-0.135-0.108-0.205-0.277-0.186-0.449l0.261-2.256c0.023-0.202,0.167-0.369,0.362-0.424 c1.005-0.282,2.099-0.535,4.402-0.535c2.064,0,3.48,0.418,4.327,1.279c0.917,0.932,1.021,2.231,1.003,3.378L16.803,19.999z"/><path d="M12.894,21H9.72c-0.139,0-0.271-0.058-0.366-0.16c-0.35-0.376-0.542-0.85-0.542-1.333c0-0.645,0.224-1.186,0.664-1.609 c0.928-0.89,2.626-1.013,3.881-0.961c0.262,0.011,0.471,0.221,0.479,0.482l0.047,1.385c0,0.077,0.004,0.168,0.009,0.273 c0.02,0.447,0.028,0.754-0.025,0.957c-0.102,0.382-0.346,0.685-0.727,0.9C13.064,20.978,12.979,21,12.894,21z M9.962,20h2.784 c0.101-0.078,0.135-0.152,0.152-0.217c0.019-0.107,0.002-0.48-0.006-0.661c-0.005-0.123-0.01-0.23-0.01-0.3l-0.03-0.895 c-1.271,0.001-2.215,0.243-2.685,0.693c-0.24,0.23-0.356,0.521-0.356,0.887C9.812,19.706,9.879,19.872,9.962,20z"/></svg>