<svg xmlns="http://www.w3.org/2000/svg"  viewBox="0 0 28 28" width="448px" height="448px"><path fill="#FFE577" d="M12.173,21c-12.37,0-10.18-7.622-10.18-12.915s8.265-6.252,14.297-6.252s8.96,5.817,8.96,11.11	S18.205,21,12.173,21z"/><path d="M13.178,26c-1.449,0-2.958-0.209-4.499-0.626c-5.714-1.546-5.694-8.665-5.678-14.385l0.002-0.938 c0-5.25,3.35-6.842,3.493-6.907c3.226-1.511,11.788-1.509,15.014,0.002c0.138,0.063,3.488,1.655,3.488,6.905 c0.001,0.146,0.035,3.755-0.461,6.332c-0.371,1.925-3.071,3.783-6.019,4.143l-0.243,0.031c-1.248,0.166-4.451,0.588-8.258-0.232 c0,0.003,0,0.007,0.001,0.01c0.267,2.046,1.836,2.26,4.024,2.337c1.937,0.072,3.687-0.488,3.705-0.494 c0.148-0.047,0.31-0.023,0.438,0.066c0.127,0.089,0.207,0.232,0.214,0.388l0.086,1.895c0.009,0.19-0.092,0.369-0.259,0.461 c-0.062,0.034-1.562,0.841-4.197,0.989C13.748,25.992,13.464,26,13.178,26z M14.001,3.005c-2.797,0-5.594,0.349-7.085,1.047 c-0.121,0.057-2.913,1.42-2.913,5.999l-0.002,0.941C3.986,16.65,3.967,23.063,8.94,24.409c1.74,0.47,3.436,0.664,5.031,0.568 c1.774-0.1,2.987-0.525,3.5-0.742l-0.042-0.937c-0.731,0.176-2.021,0.415-3.42,0.372c-1.827-0.065-4.585-0.163-4.981-3.207 c-0.033-0.245-0.049-0.503-0.049-0.778c0-0.154,0.071-0.299,0.192-0.394c0.122-0.096,0.281-0.127,0.429-0.092 c3.91,0.976,7.277,0.534,8.546,0.365l0.252-0.032c2.725-0.332,4.906-2.026,5.158-3.34c0.477-2.477,0.444-6.101,0.443-6.137 c0-4.585-2.792-5.948-2.911-6.004C19.598,3.354,16.8,3.005,14.001,3.005z"/><path d="M20.728,16.979h-2.344c-0.276,0-0.5-0.224-0.5-0.5v-5.862c0-1.51-1.244-1.704-1.809-1.031 c-0.266,0.316-0.407,0.796-0.407,1.385v3.209c0,0.276-0.224,0.5-0.5,0.5h-2.327c-0.276,0-0.5-0.224-0.5-0.5V10.97 c0-0.589-0.141-1.068-0.407-1.385c-0.565-0.673-1.809-0.479-1.809,1.031v5.862c0,0.276-0.224,0.5-0.5,0.5H7.279 c-0.276,0-0.5-0.224-0.5-0.5c0-1.082-0.008-2.016-0.015-2.829C6.731,9.665,6.722,8.463,7.823,7.171 c0.001-0.002,0.003-0.004,0.004-0.006c0.77-0.876,2.006-1.367,3.229-1.27c1.161,0.089,2.176,0.688,2.785,1.645l0.161,0.276 l0.151-0.26c0.618-0.972,1.632-1.571,2.791-1.66c1.227-0.091,2.464,0.392,3.233,1.269c1.109,1.306,1.099,2.502,1.064,6.464 c-0.007,0.817-0.015,1.758-0.015,2.85C21.228,16.755,21.004,16.979,20.728,16.979z M7.779,16.479h0.01H7.779z M18.884,15.979h1.344 c0.002-0.886,0.009-1.666,0.015-2.358c0.032-3.771,0.041-4.785-0.822-5.802c-0.561-0.639-1.477-0.994-2.399-0.925 c-0.854,0.065-1.57,0.485-2.014,1.184l-0.573,0.984c-0.09,0.153-0.254,0.248-0.432,0.248l0,0c-0.178,0-0.342-0.095-0.432-0.248 l-0.583-1.001c-0.434-0.682-1.151-1.103-2.008-1.168c-0.917-0.069-1.832,0.286-2.398,0.93C7.725,8.83,7.733,9.852,7.765,13.642 c0.006,0.687,0.012,1.461,0.014,2.337h1.347v-5.362c0-1.58,1.032-2.407,2.052-2.407c0.577,0,1.132,0.267,1.523,0.732 c0.419,0.5,0.641,1.201,0.641,2.028v2.709h1.327V10.97c0-0.827,0.222-1.528,0.641-2.028c0.391-0.466,0.946-0.732,1.523-0.732 c1.02,0,2.052,0.827,2.052,2.407V15.979z"/></svg>