<svg xmlns="http://www.w3.org/2000/svg"  viewBox="0 0 36 36" width="288px" height="288px"><path fill="#EFEFEF" d="M8.377,31.833c6.917,0,11.667,3.583,15,3.583S33.71,33.5,33.71,18.167S24.293,0.583,20.627,0.583	C3.46,0.583-3.873,31.833,8.377,31.833z"/><path fill="#A4AFC1" d="M27.25,28.477c-0.827,0-1.5-0.673-1.5-1.5s0.673-1.5,1.5-1.5s1.5,0.673,1.5,1.5S28.077,28.477,27.25,28.477 z M27.25,26.477c-0.276,0-0.5,0.225-0.5,0.5s0.224,0.5,0.5,0.5s0.5-0.225,0.5-0.5S27.526,26.477,27.25,26.477z"/><rect width="1" height="2" x="5.375" y="2.125" fill="#A4AFC1"/><rect width="1" height="2" x="5.375" y="7.875" fill="#A4AFC1"/><rect width="2" height="1" x="1.875" y="5.375" fill="#A4AFC1"/><rect width="2" height="1" x="7.625" y="5.375" fill="#A4AFC1"/><path fill="#2FDF84" d="M7.754,14.137c0,5.809-0.323,13.025,5.18,14.518c1.986,0.538,3.694,0.652,5.067,0.572	c2.492-0.14,3.89-0.908,3.89-0.908l-0.084-1.853c0,0-1.781,0.572-3.782,0.507c-1.982-0.071-4.072-0.221-4.395-2.711	c-0.029-0.221-0.044-0.452-0.044-0.698c4.2,1.05,7.78,0.457,8.766,0.336c2.752-0.336,5.151-2.074,5.456-3.661	c0.48-2.5,0.441-6.101,0.441-6.101c0-4.881-3.125-6.312-3.125-6.312c-3.066-1.441-11.209-1.426-14.246,0	C10.879,7.825,7.754,9.256,7.754,14.137z"/><path fill="#00B871" d="M19.844,24.145c-1.212-0.06-2.572-0.224-4.009-0.583c0,0.152,0.016,0.289,0.027,0.43 C17.379,24.191,18.743,24.199,19.844,24.145z"/><path fill="#00B871" d="M19.396,26.925c0.292,0.021,0.586,0.037,0.879,0.047c0.546,0.018,1.071-0.014,1.552-0.066l-0.02-0.44 C21.807,26.465,20.772,26.795,19.396,26.925z"/><path fill="#00B871" d="M15.184,28.655c-5.504-1.492-5.18-8.708-5.18-14.518c0-4.881,3.125-6.312,3.125-6.312 c1.317-0.618,3.595-0.97,6.002-1.054c-3.154-0.109-6.527,0.244-8.252,1.054c0,0-3.125,1.431-3.125,6.312 c0,5.81-0.323,13.026,5.18,14.518c1.986,0.538,3.694,0.652,5.067,0.572c0.119-0.007,0.223-0.021,0.336-0.03 C17.383,29.125,16.337,28.967,15.184,28.655z"/><g><path d="M17.193,30c-1.434,0-2.928-0.208-4.456-0.621c-5.772-1.565-5.752-8.642-5.736-14.326l0.002-0.916 c0-5.302,3.417-6.927,3.563-6.993c3.263-1.532,11.61-1.533,14.877,0.003c0.139,0.063,3.556,1.688,3.556,6.99 c0.001,0.142,0.034,3.697-0.455,6.243c-0.381,1.985-3.118,3.897-6.101,4.263l-0.237,0.031c-1.188,0.157-4.177,0.551-7.768-0.154 c0.326,1.349,1.425,1.625,3.613,1.702c1.834,0.078,3.51-0.465,3.527-0.471c0.222-0.072,0.466-0.035,0.657,0.099 c0.192,0.134,0.311,0.349,0.321,0.581l0.083,1.854c0.013,0.286-0.137,0.554-0.388,0.691c-0.063,0.035-1.578,0.853-4.209,1 C17.762,29.992,17.479,30,17.193,30z M18.002,7.496c-2.687,0-5.374,0.336-6.805,1.008c-0.111,0.054-2.694,1.336-2.694,5.633 l-0.002,0.92c-0.015,5.442-0.033,11.61,4.628,12.875c1.674,0.453,3.299,0.641,4.827,0.546c1.525-0.085,2.611-0.423,3.162-0.637 L21.1,27.42c-0.754,0.163-1.887,0.343-3.099,0.302c-1.759-0.062-4.699-0.167-5.114-3.364c-0.034-0.249-0.05-0.514-0.05-0.796 c0-0.231,0.106-0.449,0.289-0.591c0.182-0.143,0.419-0.191,0.644-0.137c3.768,0.942,7.019,0.513,8.242,0.353l0.25-0.032 c2.476-0.304,4.582-1.864,4.811-3.058c0.46-2.399,0.428-5.917,0.428-5.952c0-4.305-2.582-5.588-2.692-5.64 C23.376,7.832,20.689,7.496,18.002,7.496z"/></g><g><path d="M25.473,20.252l-1.5-0.004l0.002-0.984c0-1.093,0.009-1.992,0.016-2.737c0.032-3.315,0.032-3.315-0.754-4.209 c-0.511-0.562-1.36-0.876-2.21-0.809c-0.448,0.035-1.281,0.215-1.817,1.029l-0.567,0.94c-0.136,0.225-0.379,0.362-0.642,0.362l0,0 c-0.263,0-0.506-0.138-0.642-0.362l-0.583-0.966c-0.521-0.789-1.356-0.97-1.806-1.004c-0.851-0.065-1.696,0.248-2.214,0.818 c-0.76,0.86-0.776,1.497-0.744,5.188c0.007,0.778,0.015,1.681,0.015,2.735h-1.5c0-1.05-0.008-1.947-0.015-2.723 c-0.033-3.746-0.043-4.877,1.127-6.201c0.831-0.913,2.149-1.417,3.447-1.313c1.204,0.094,2.263,0.688,2.917,1.637 c0.668-0.957,1.717-1.543,2.91-1.636c1.297-0.104,2.621,0.398,3.444,1.304c1.174,1.334,1.17,1.776,1.136,5.224 c-0.007,0.741-0.016,1.636-0.016,2.725L25.473,20.252z"/></g><g><rect width="1.5" height="4.289" x="17.249" y="13.091"/></g></svg>