<svg xmlns="http://www.w3.org/2000/svg"  viewBox="0 0 28 28" width="448px" height="448px"><path fill="#ff7c66" d="m13.5 20.173c-3.284.641-3.107 3.127-6.191 1.52s-1.651-6.168 1.52-6.428 4.174-2.085 5.171-4.387 5.506-2.085 6.14 1.042c.634 3.128-2.977 7.538-6.64 8.253z"/><path fill="#ffe577" d="m25.242 8.25c.576 3.356.088 5.462-3.726 6.117s-6.392-1.146-6.968-4.502 1.069-5.212 4.884-5.866 5.234.895 5.81 4.251z"/><path d="m19.943 15.975c-.042 0-.084 0-.126-.001-1.603-.033-3.096-.688-4.206-1.844-2.291-2.387-2.212-6.192.174-8.483 1.156-1.11 2.656-1.703 4.278-1.67 1.603.033 3.096.688 4.206 1.844 2.291 2.387 2.213 6.192-.174 8.483-1.126 1.08-2.596 1.671-4.152 1.671zm-.006-11.001c-1.296 0-2.521.492-3.459 1.393-1.989 1.909-2.054 5.08-.145 7.069.925.964 2.169 1.509 3.505 1.537 1.339.026 2.601-.466 3.565-1.392 1.989-1.909 2.054-5.081.145-7.069-.925-.964-2.169-1.509-3.504-1.537-.037 0-.072-.001-.107-.001z"/><path d="m9.5 24c-2.229 0-4.14-1.656-4.445-3.851-.038-.273.153-.526.426-.564.271-.039.526.152.564.426.237 1.704 1.723 2.989 3.455 2.989 1.93 0 3.5-1.57 3.5-3.5s-1.57-3.5-3.5-3.5c-.785 0-1.526.254-2.143.734-.218.169-.532.13-.702-.087-.169-.218-.13-.532.087-.702.795-.618 1.748-.945 2.758-.945 2.481 0 4.5 2.019 4.5 4.5s-2.019 4.5-4.5 4.5z"/><path d="m9.496 22.001c-.339 0-.674-.07-.99-.21l-6.191-2.456c-.19-.076-.315-.26-.315-.465v-4.37c0-.167.083-.322.221-.415s.314-.111.467-.049l7.74 3.14c.617.244 1.105.719 1.371 1.335.541 1.269-.048 2.742-1.311 3.287-.324.136-.66.203-.992.203zm-6.496-3.47 5.885 2.334c.007.003.013.006.02.009.373.168.797.169 1.193.004.752-.324 1.106-1.21.782-1.972-.159-.369-.452-.653-.824-.801l-7.056-2.863z"/><path d="m20 14c-2.206 0-4-1.794-4-4s1.794-4 4-4 4 1.794 4 4-1.794 4-4 4zm0-7c-1.654 0-3 1.346-3 3s1.346 3 3 3 3-1.346 3-3-1.346-3-3-3z"/><path d="m10.45 16.12c-.095 0-.19-.027-.275-.083-.23-.152-.294-.462-.142-.692l4.01-6.07c.151-.231.462-.295.692-.142.23.152.294.462.142.692l-4.01 6.07c-.096.146-.255.225-.417.225z"/><path d="m13.5 19.98c-.169 0-.334-.086-.429-.242-.143-.236-.066-.543.17-.687l6.64-4.01c.235-.144.543-.066.687.17.143.236.066.543-.17.687l-6.64 4.01c-.08.049-.17.072-.258.072z"/></svg>