<svg xmlns="http://www.w3.org/2000/svg"  viewBox="0 0 36 36" width="288px" height="288px"><path fill="#efefef" d="m27.417 3.914c-6.915.129-11.732-3.365-15.064-3.302s-10.296 2.109-10.009 17.44 9.744 17.404 13.41 17.336c17.163-.321 23.911-31.703 11.663-31.474z"/><g fill="#a4afc1"><path d="m6.109 14.179h2v1h-2z" transform="rotate(-45.001 7.108 14.68)"/><path d="m2.043 18.245h2v1h-2z" transform="rotate(-45.001 3.042 18.745)"/><path d="m2.543 13.503h1v2h-1z" transform="rotate(-45.001 3.042 14.503)"/><path d="m22.134 27.792c-.827 0-1.5-.673-1.5-1.5s.673-1.5 1.5-1.5 1.5.673 1.5 1.5-.673 1.5-1.5 1.5zm0-2c-.276 0-.5.224-.5.5s.224.5.5.5.5-.224.5-.5-.224-.5-.5-.5z"/></g><path fill="#2fdf84" d="m13.586 19.458c-.902 0-1.736.301-2.403.817l-.002.005 3.131 1.259c.471.185.863.545 1.079 1.04.422.982-.029 2.129-1.03 2.557-.52.214-1.079.204-1.56-.01l-3.089-1.215c.265 1.886 1.903 3.325 3.874 3.325 2.168 0 3.923-1.741 3.923-3.89 0-2.147-1.756-3.888-3.923-3.888z"/><path fill="#f3f3f1" d="m27.717 10.382c-2.063-2.131-5.478-2.2-7.627-.155s-2.219 5.431-.156 7.562 5.478 2.2 7.627.155c2.149-2.046 2.219-5.431.156-7.562zm-3.833 6.478c-1.519 0-2.75-1.231-2.75-2.75s1.231-2.75 2.75-2.75 2.75 1.231 2.75 2.75-1.231 2.75-2.75 2.75z"/><circle cx="23.884" cy="14.11" r="2.75" fill="#f3f3f1"/><path fill="#2fdf84" d="m12.801 25.127c.481.214 1.04.224 1.56.01 1-.428 1.452-1.575 1.03-2.557-.216-.496-.608-.856-1.079-1.04l-7.592-3.054v4.249z"/><path fill="#00b871" d="m15.39 22.58c.377.877.054 1.883-.732 2.393l.393.155c.481.214 1.04.224 1.56.01.25-.107.466-.259.643-.443.157-.421.256-.871.256-1.347 0-.471-.097-.917-.252-1.335-.197-.207-.432-.37-.696-.474l-3.131-1.259.002-.005c.373-.288.802-.501 1.263-.64-.354-.104-.721-.177-1.11-.177-.902 0-1.736.301-2.403.817l-.002.005 3.131 1.259c.47.185.863.545 1.078 1.041z"/><path fill="#00b871" d="m12.264 24.916-2.553-1.004c.265 1.886 1.903 3.325 3.874 3.325.391 0 .762-.074 1.118-.18-1.096-.328-1.983-1.113-2.439-2.141z"/><path fill="#d5dbe1" d="m22.184 17.789c-2.063-2.131-1.993-5.516.156-7.562.76-.723 1.68-1.168 2.641-1.365-1.698-.367-3.543.082-4.891 1.365-2.149 2.045-2.219 5.431-.156 7.562 1.334 1.378 3.23 1.88 4.987 1.52-1.01-.219-1.968-.726-2.737-1.52z"/><path fill="#00b871" d="m8.97 22.735v-3.344l-2.25-.905v4.249l6.081 2.392c.481.214 1.04.224 1.56.01.107-.046.204-.103.298-.164z"/><path d="m23.827 20.18c-1.615 0-3.228-.625-4.432-1.87-1.138-1.175-1.746-2.72-1.712-4.349.034-1.63.705-3.149 1.891-4.277 2.444-2.324 6.339-2.246 8.684.177 1.138 1.175 1.746 2.72 1.712 4.349-.034 1.63-.705 3.149-1.891 4.277-1.189 1.131-2.722 1.693-4.252 1.693zm-.002-10.691c-1.158 0-2.318.425-3.218 1.282-.894.85-1.4 1.994-1.425 3.221s.433 2.39 1.291 3.275c1.775 1.833 4.722 1.893 6.571.133.894-.85 1.4-1.994 1.425-3.221s-.433-2.39-1.291-3.275c-.91-.942-2.131-1.415-3.353-1.415z"/><path d="m13.586 27.987c-2.314 0-4.3-1.708-4.617-3.972l1.485-.208c.214 1.528 1.561 2.68 3.132 2.68 1.75 0 3.173-1.408 3.173-3.14s-1.423-3.14-3.173-3.14c-.713 0-1.385.229-1.945.661l-.917-1.188c.825-.637 1.814-.973 2.862-.973 2.577 0 4.673 2.082 4.673 4.64s-2.096 4.64-4.673 4.64z"/><path d="m13.581 26.043c-.366 0-.728-.075-1.068-.224l-6.067-2.387c-.287-.113-.476-.39-.476-.698v-4.249c0-.249.124-.482.33-.622.207-.14.468-.167.7-.074l7.592 3.053c.668.262 1.198.773 1.487 1.437.285.665.294 1.396.027 2.065-.269.67-.783 1.196-1.45 1.481-.353.146-.716.218-1.075.218zm-6.111-3.819 5.606 2.205c.01.004.021.008.031.013.301.134.645.134.968.001.289-.124.518-.358.638-.656.118-.296.114-.62-.011-.912-.127-.292-.363-.521-.664-.638l-6.568-2.641z"/><path d="m23.884 17.61c-1.93 0-3.5-1.57-3.5-3.5s1.57-3.5 3.5-3.5 3.5 1.57 3.5 3.5-1.57 3.5-3.5 3.5zm0-5.5c-1.103 0-2 .897-2 2s.897 2 2 2 2-.897 2-2-.897-2-2-2z"/><path d="m12.938 15.874h7.093v1.5h-7.093z" transform="rotate(-56.312 16.483 16.623)"/><path d="m16.97 20.629h7.591v1.5h-7.591z" transform="rotate(-30.905 20.767 21.38)"/></svg>