<svg xmlns="http://www.w3.org/2000/svg"  viewBox="0 0 36 36" width="288px" height="288px"><path fill="#efefef" d="m26.982 3.914c-6.916.129-11.732-3.365-15.065-3.302s-10.296 2.109-10.009 17.44 9.744 17.404 13.41 17.336c17.164-.321 23.911-31.703 11.664-31.474z"/><g fill="#a4afc1"><path d="m19.875 3.562h2v1h-2z"/><path d="m14.125 3.562h2v1h-2z"/><path d="m17.625.062h1v2h-1z"/><path d="m6.75 30.75c-.827 0-1.5-.673-1.5-1.5s.673-1.5 1.5-1.5 1.5.673 1.5 1.5-.673 1.5-1.5 1.5zm0-2c-.275 0-.5.224-.5.5s.225.5.5.5.5-.224.5-.5-.225-.5-.5-.5z"/></g><path fill="#f3f3f1" d="m18 6.75c-6.213 0-11.25 5.037-11.25 11.25s5.037 11.25 11.25 11.25 11.25-5.037 11.25-11.25-5.037-11.25-11.25-11.25zm3.424 16.63-3.913-1.957-1.957 1.957v-2.935l3.227-3.227-5.183 2.249-2.935-1.871 12.717-4.976z"/><path fill="#2fdf84" d="m13.598 19.467-2.935-1.871 12.717-4.976-1.956 10.76-3.913-1.956-1.957 1.956v-2.934l3.227-3.227z"/><path fill="#d5dbe1" d="m9 18c0-5.833 4.44-10.629 10.125-11.193-.37-.037-.745-.057-1.125-.057-6.213 0-11.25 5.037-11.25 11.25s5.037 11.25 11.25 11.25c.38 0 .755-.02 1.125-.057-5.685-.564-10.125-5.36-10.125-11.193z"/><path fill="#00b871" d="m19.761 21.424-.75.75 2.413 1.206.187-1.031z"/><path fill="#00b871" d="m12.913 17.596 10.295-4.029.172-.947-12.717 4.976 2.935 1.871 1.339-.581z"/><path fill="#00b871" d="m17.804 20.446 3.227-3.227-3.974 1.724-1.503 1.503v2.934l1.957-1.956.293.147z"/><path d="m18 30c-6.617 0-12-5.383-12-12s5.383-12 12-12 12 5.383 12 12-5.383 12-12 12zm0-22.5c-5.79 0-10.5 4.71-10.5 10.5s4.71 10.5 10.5 10.5 10.5-4.71 10.5-10.5-4.71-10.5-10.5-10.5z"/><path d="m15.555 24.13c-.097 0-.194-.019-.287-.057-.28-.116-.463-.39-.463-.693v-2.935c0-.199.079-.39.22-.53l.44-.441-1.568.681c-.228.1-.491.08-.702-.056l-2.935-1.872c-.238-.152-.37-.424-.343-.705s.21-.523.473-.625l12.718-4.976c.254-.101.54-.054.75.119s.31.446.262.713l-1.957 10.761c-.043.232-.191.431-.403.537-.211.105-.459.105-.67 0l-3.43-1.715-1.574 1.574c-.145.144-.336.22-.531.22zm1.956-3.456c.114 0 .229.026.335.079l3.02 1.509 1.537-8.455-10.092 3.949 1.354.864 4.817-2.09c.331-.143.717-.032.919.266s.165.697-.09.952l-3.007 3.007v.813l.676-.676c.144-.142.336-.218.531-.218z"/></svg>