<svg xmlns="http://www.w3.org/2000/svg"  viewBox="0 0 28 28" width="448px" height="448px"><path fill="#ff7c66" d="m24.188 12.56c1.173 6.834.18 11.125-7.588 12.458s-13.017-2.334-14.19-9.169 2.177-10.614 9.946-11.947 10.659 1.824 11.832 8.658z"/><path fill="#deff8f" d="m17.836 9.285c-.699-.944-8.433 2.14-8.599 3.365-.165 1.225-1.094 2.608.131 2.534s5.048-3.092 4.373-1.915c-.676 1.177-3.484 3.312-1.676 4.502s3.71 3.709 4.47.287c.759-3.423 1.985-7.85 1.301-8.773z"/><path d="m14 26c-6.617 0-12-5.383-12-12s5.383-12 12-12 12 5.383 12 12-5.383 12-12 12zm0-23c-6.065 0-11 4.935-11 11s4.935 11 11 11 11-4.935 11-11-4.935-11-11-11z"/><path d="m11.5 20c-.064 0-.13-.012-.191-.038-.187-.077-.309-.26-.309-.462v-3c0-.133.053-.26.146-.354l2.36-2.36-3.759 2.147c-.161.092-.359.088-.517-.013l-3-1.913c-.159-.101-.247-.283-.229-.47.019-.187.141-.348.315-.417l13-5.087c.171-.065.36-.035.5.08.141.115.207.297.175.476l-2 11c-.028.155-.128.288-.269.358s-.307.07-.447 0l-3.678-1.839-1.745 1.745c-.094.096-.222.147-.352.147zm2-3c.076 0 .152.017.224.053l3.403 1.702 1.721-9.463-11.25 4.402 1.917 1.222 6.737-3.85c.218-.123.493-.068.646.13.152.199.133.48-.044.657l-4.854 4.854v1.586l1.146-1.146c.096-.097.224-.147.354-.147z"/></svg>