<svg xmlns="http://www.w3.org/2000/svg"  viewBox="0 0 36 36" width="288px" height="288px"><path fill="#efefef" d="m34.904 20.355c-3.782-5.791-3.38-11.727-5.203-14.518s-7.256-7.603-20.093.782-9.572 17.5-7.566 20.569c9.388 14.372 39.561 3.423 32.862-6.833z"/><g fill="#a4afc1"><path d="m6.324 1.556h2v1h-2z" transform="rotate(-45.001 7.324 2.056)"/><path d="m2.259 5.621h2v1h-2z" transform="rotate(-45.001 3.259 6.121)"/><path d="m2.759.879h1v2h-1z" transform="rotate(-45.001 3.259 1.879)"/><path d="m4.259 31.75c-.827 0-1.5-.673-1.5-1.5s.673-1.5 1.5-1.5 1.5.673 1.5 1.5-.673 1.5-1.5 1.5zm0-2c-.275 0-.5.225-.5.5s.225.5.5.5.5-.225.5-.5-.225-.5-.5-.5z"/><path d="m32.116 6.273h1v2h-1z" transform="rotate(-44.98 32.615 7.272)"/><path d="m28.05 2.207h1v2h-1z" transform="rotate(-45.02 28.548 3.207)"/><path d="m31.793 2.707h2v1h-2z" transform="rotate(-45.001 32.793 3.207)"/><path d="m4 5.556c-.827 0-1.5-.673-1.5-1.5s.673-1.5 1.5-1.5 1.5.673 1.5 1.5-.673 1.5-1.5 1.5zm0-2c-.275 0-.5.225-.5.5s.225.5.5.5.5-.225.5-.5-.225-.5-.5-.5z"/></g><path fill="#f3f3f1" d="m28.25 6.75h-20.5c-.552 0-1 .448-1 1v20.5c0 .552.448 1 1 1h20.5c.552 0 1-.448 1-1v-20.5c0-.552-.448-1-1-1zm-7.822 19.575h-.127l.008.001c-3.618 0-4.995-2.606-4.995-4.448v-5.441h-1.716v-2.15c2.579-.911 3.205-3.189 3.346-4.489.01-.089.082-.124.123-.124h2.499v4.242h3.411v2.521h-3.424v5.183c.011.695.266 1.645 1.568 1.645h.064c.448-.014 1.056-.142 1.375-.291l.821 2.376c-.31.442-1.706.954-2.953.975z"/><path fill="#2fdf84" d="m23.38 25.351-.821-2.377c-.32.148-.927.277-1.375.291h-.064c-1.302 0-1.557-.951-1.568-1.645v-5.183h3.424v-2.521h-3.411v-4.243h-2.499c-.041 0-.113.035-.123.124-.141 1.3-.767 3.578-3.346 4.489v2.15h1.716v5.441c0 1.842 1.377 4.448 4.995 4.448l-.008-.001h.126c1.249-.02 2.645-.532 2.954-.973z"/><path fill="#d5dbe1" d="m22.976 13.916h2.25v2.521h-2.25z"/><path fill="#d5dbe1" d="m19.552 16.437v5.183c.011.695.266 1.645 1.568 1.645h.064c.403-.013.923-.119 1.259-.247-.5-.327-.633-.92-.641-1.398v-5.183z"/><path fill="#d5dbe1" d="m23.434 23.265h-.064c-.311 0-.559-.057-.762-.149l.772 2.235c-.231.329-1.066.697-1.993.872.362.065.75.104 1.171.104l-.008-.001h.127c1.247-.021 2.643-.533 2.953-.974l-.821-2.376c-.319.147-.927.275-1.375.289z"/><path fill="#d5dbe1" d="m9 28.25v-20.5c0-.552.448-1 1-1h-2.25c-.552 0-1 .448-1 1v20.5c0 .552.448 1 1 1h2.25c-.552 0-1-.448-1-1z"/><path fill="#d5dbe1" d="m19.565 9.673h2.25v4.242h-2.25z"/><path fill="#00b871" d="m22.559 22.974c-.033.015-.079.029-.117.043.053.035.104.07.166.098z"/><path fill="#00b871" d="m21.388 26.223c-2.746-.496-3.824-2.717-3.824-4.345v-5.441h-1.716v-2.15c2.579-.911 3.205-3.189 3.346-4.489.01-.089.082-.124.123-.124h-2.25c-.041 0-.113.035-.123.124-.141 1.3-.767 3.578-3.346 4.489v2.15h1.716v5.441c0 1.842 1.377 4.448 4.995 4.448l-.008-.001h.127c.317-.005.644-.043.96-.102z"/><path d="m20.31 27.076c-4.215 0-5.745-3.108-5.745-5.198v-4.691h-.967c-.414 0-.75-.336-.75-.75v-2.15c0-.318.2-.602.5-.707 2.091-.739 2.704-2.508 2.851-3.862.05-.452.423-.793.868-.793h2.499c.414 0 .75.336.75.75v3.492h2.661c.414 0 .75.336.75.75v2.521c0 .414-.336.75-.75.75h-2.675v4.434c.014.825.412.896.818.896.412-.012.92-.127 1.124-.222.192-.089.413-.093.609-.01.194.083.346.245.415.445l.821 2.376c.078.228.043.479-.096.677-.525.747-2.262 1.271-3.554 1.293h-.092c-.011-.001-.025-.001-.037-.001zm-5.962-11.389h.967c.414 0 .75.336.75.75v5.441c0 1.273.88 3.678 4.202 3.698.012-.001.023-.001.035-.001h.126c.826-.014 1.642-.276 2.068-.488l-.409-1.186c-.294.063-.604.104-.879.114h-.001c-1.492 0-2.38-.913-2.405-2.383v-5.196c0-.414.336-.75.75-.75h2.675v-1.021h-2.661c-.414 0-.75-.336-.75-.75v-3.492h-1.204c-.254 1.394-1.02 3.357-3.264 4.369z"/><path d="m28.25 30h-20.5c-.965 0-1.75-.785-1.75-1.75v-20.5c0-.965.785-1.75 1.75-1.75h20.5c.965 0 1.75.785 1.75 1.75v20.5c0 .965-.785 1.75-1.75 1.75zm-20.5-22.5c-.138 0-.25.112-.25.25v20.5c0 .138.112.25.25.25h20.5c.138 0 .25-.112.25-.25v-20.5c0-.138-.112-.25-.25-.25z"/></svg>