<svg xmlns="http://www.w3.org/2000/svg"  viewBox="0 0 28 28" width="448px" height="448px"><path fill="#ffe577" d="m9.025 19.195c.068-2.333-4.658-5.322-3.967-8.62s8.269.147 8.674-.695c.405-.841-.364-6.976 5.851-5.131s5.517 11.343 0 15.114-10.712 4.6-10.558-.668z"/><path d="m9.733 23.75c-2.68 0-5.274-.751-7.502-2.173-.197-.125-.281-.371-.201-.591.08-.221.304-.357.532-.327.325.041.664.06 1.066.06 1.582 0 3.142-.418 4.502-1.193-1.64-.472-2.985-1.726-3.535-3.393-.057-.17-.017-.358.103-.492.089-.098.211-.156.34-.164-1.295-.956-2.118-2.485-2.118-4.162 0-.176.093-.365.245-.456s.339-.12.494-.035c.086.047.174.09.262.131-.62-.862-.965-1.905-.965-2.997 0-.918.24-1.796.714-2.611.082-.142.229-.234.392-.247.165-.015.323.054.427.181 2.181 2.655 5.341 4.33 8.743 4.658-.014-.166-.021-.339-.021-.521 0-2.85 2.338-5.168 5.212-5.168 1.339 0 2.638.519 3.605 1.432.922-.209 1.787-.55 2.574-1.015.18-.105.404-.089.566.04s.228.346.164.543c-.177.551-.445 1.064-.792 1.521.258-.086.511-.183.759-.29.203-.088.442-.031.583.14.142.171.154.416.029.6-.635.938-1.397 1.741-2.267 2.391.004.117.006.236.006.356.004 6.774-5.203 13.782-13.917 13.782zm-5.192-2.073c1.622.706 3.386 1.073 5.192 1.073 8.087 0 12.92-6.5 12.92-12.783 0-.197-.007-.389-.017-.578-.008-.171.072-.335.212-.434.419-.294.812-.627 1.176-.997-.386.093-.78.165-1.179.215-.232.031-.459-.109-.536-.334-.077-.224.015-.472.219-.592.462-.273.863-.626 1.183-1.037-.559.219-1.143.389-1.747.508-.167.037-.342-.021-.46-.146-.796-.84-1.919-1.321-3.082-1.321-2.323 0-4.212 1.87-4.212 4.168 0 .357.032.669.097.953.035.152-.003.312-.104.433-.1.12-.248.194-.407.179-3.658-.177-7.105-1.799-9.574-4.481-.177.466-.266.955-.266 1.456 0 1.393.699 2.688 1.871 3.462.186.123.268.353.202.565s-.263.359-.487.352c-.52-.01-1.043-.104-1.546-.277.316 1.669 1.608 3.007 3.302 3.351.228.046.393.243.4.474.008.232-.145.438-.369.499-.446.121-.96.177-1.461.17.724 1.294 2.095 2.14 3.618 2.173.212.005.398.142.464.343s-.001.422-.169.552c-1.506 1.166-3.338 1.88-5.24 2.054z"/></svg>