<svg xmlns="http://www.w3.org/2000/svg"  viewBox="0 0 36 36" width="288px" height="288px"><path fill="#efefef" d="m34.904 20.355c-3.782-5.791-3.38-11.727-5.203-14.518s-7.256-7.603-20.093.782-9.572 17.5-7.566 20.569c9.388 14.372 39.561 3.423 32.862-6.833z"/><g fill="#a4afc1"><path d="m4 5.75c-.827 0-1.5-.673-1.5-1.5s.673-1.5 1.5-1.5 1.5.673 1.5 1.5-.673 1.5-1.5 1.5zm0-2c-.276 0-.5.225-.5.5s.224.5.5.5.5-.225.5-.5-.224-.5-.5-.5z"/><path d="m31.75 28.25h1v2h-1z"/><path d="m31.75 34h1v2h-1z"/><path d="m28.25 31.5h2v1h-2z"/><path d="m34 31.5h2v1h-2z"/></g><path fill="#f3f3f1" d="m28.25 6.75h-20.5c-.552 0-1 .448-1 1v20.5c0 .552.448 1 1 1h20.5c.552 0 1-.448 1-1v-20.5c0-.552-.448-1-1-1zm-3.947 7.732c.007.136.012.275.012.417 0 4.261-3.273 9.178-9.258 9.178-1.842 0-3.549-.526-4.99-1.447.256.032.512.044.778.044 1.521 0 2.927-.517 4.033-1.375-1.421-.031-2.618-.97-3.039-2.247.197.043.407.055.615.055.299 0 .588-.034.853-.106-1.479-.3-2.606-1.602-2.606-3.169 0-.013 0-.026 0-.035.434.237.947.387 1.47.397-.865-.574-1.445-1.563-1.445-2.68 0-.595.165-1.147.446-1.63 1.608 1.958 4.001 3.243 6.705 3.374-.054-.234-.075-.48-.075-.735 0-1.776 1.45-3.226 3.251-3.226.928 0 1.779.39 2.376 1.021.74-.147 1.934.091 2.563-.281-.244.753-1.044 1.99-1.689 2.445z"/><path fill="#2fdf84" d="m24.315 14.898c0-.142-.005-.281-.012-.417.645-.454 1.445-1.692 1.687-2.448-.629.372-1.823.134-2.563.281-.597-.631-1.448-1.021-2.376-1.021-1.801 0-3.251 1.449-3.251 3.226 0 .256.022.501.075.735-2.704-.131-5.097-1.416-6.705-3.374-.28.483-.446 1.036-.446 1.63 0 1.117.58 2.107 1.445 2.68-.523-.01-1.035-.161-1.47-.397v.035c0 1.567 1.127 2.869 2.606 3.169-.265.072-.553.106-.853.106-.208 0-.418-.012-.616-.055.421 1.277 1.618 2.216 3.039 2.247-1.107.858-2.512 1.375-4.033 1.375-.266 0-.522-.012-.778-.044 1.441.921 3.148 1.447 4.99 1.447 5.988.003 9.261-4.913 9.261-9.175z"/><path fill="#d5dbe1" d="m24.303 14.482c.007.136.012.275.012.417 0 3.965-2.837 8.492-8.053 9.103.344.038.689.075 1.045.075 5.986 0 9.258-4.916 9.258-9.178 0-.142-.005-.281-.012-.417.645-.454 1.445-1.692 1.687-2.448-.571.338-1.606.175-2.346.252-.313.755-1.013 1.789-1.591 2.196z"/><path fill="#d5dbe1" d="m17.834 14.84c-1.749-.543-3.278-1.578-4.412-2.959-.28.483-.446 1.036-.446 1.63 0 .014.005.027.005.041 1.396.991 3.071 1.614 4.895 1.702-.03-.131-.03-.275-.042-.414z"/><path fill="#d5dbe1" d="m9 28.25v-20.5c0-.552.448-1 1-1h-2.25c-.552 0-1 .448-1 1v20.5c0 .552.448 1 1 1h2.25c-.552 0-1-.448-1-1z"/><path fill="#d5dbe1" d="m23.302 11.294c-.4 0-.778.081-1.131.212.479.175.913.445 1.257.809.587-.117 1.457.005 2.106-.124-.587-.552-1.372-.897-2.232-.897z"/><path fill="#00b871" d="m25.678 12.315c.068-.013.142-.021.217-.028.036-.088.071-.174.096-.252-.13.077-.287.123-.456.157.045.042.099.076.143.123z"/><path fill="#00b871" d="m12.317 22.629c.256.032.512.044.778.044 1.521 0 2.927-.517 4.033-1.375-1.421-.031-2.618-.97-3.039-2.247.197.043.407.055.615.055.299 0 .588-.034.853-.106-1.479-.3-2.606-1.602-2.606-3.169 0-.013 0-.026 0-.035.434.237.947.387 1.47.397-.854-.566-1.425-1.539-1.44-2.639-.673-.478-1.287-1.035-1.81-1.672-.28.483-.446 1.036-.446 1.63 0 1.117.58 2.107 1.445 2.68-.523-.01-1.035-.161-1.47-.397v.035c0 1.567 1.127 2.869 2.606 3.169-.265.072-.553.106-.853.106-.208 0-.418-.012-.615-.055.421 1.277 1.618 2.216 3.039 2.247-1.107.858-2.512 1.375-4.033 1.375-.266 0-.522-.012-.778-.044 1.441.921 3.148 1.447 4.99 1.447.416 0 .816-.029 1.205-.075-1.44-.158-2.781-.628-3.944-1.371z"/><path fill="#00b871" d="m20.126 15.255c-.054-.234-.075-.48-.075-.735 0-1.382.882-2.556 2.12-3.014-.352-.129-.726-.212-1.119-.212-1.801 0-3.251 1.449-3.251 3.226 0 .111.024.213.033.32.731.227 1.495.376 2.292.415z"/><path d="m28.25 30h-20.5c-.965 0-1.75-.785-1.75-1.75v-20.5c0-.965.785-1.75 1.75-1.75h20.5c.965 0 1.75.785 1.75 1.75v20.5c0 .965-.785 1.75-1.75 1.75zm-20.5-22.5c-.138 0-.25.112-.25.25v20.5c0 .138.112.25.25.25h20.5c.138 0 .25-.112.25-.25v-20.5c0-.138-.112-.25-.25-.25z"/><path d="m15.048 24.836c-1.877 0-3.744-.526-5.385-1.575-.295-.188-.421-.557-.302-.887s.454-.532.799-.489c.95.121 1.918-.01 2.809-.358-.853-.482-1.522-1.271-1.843-2.24-.065-.198-.044-.412.052-.592-.762-.732-1.228-1.756-1.228-2.864 0-.265.139-.527.367-.662.008-.005.015-.009.023-.014-.515-1.136-.488-2.496.182-3.649.124-.213.343-.352.588-.371.245-.021.484.081.64.271 1.336 1.627 3.228 2.696 5.287 3.013.022-1.412.787-2.678 2.103-3.383 1.512-.809 3.293-.605 4.547.491.243-.019.496-.024.744-.017.434-.005.969.002 1.177-.121.268-.158.605-.134.849.06.243.193.341.518.247.814-.244.764-.935 1.899-1.641 2.562.046 3.605-1.766 6.81-4.9 8.626-1.595.924-3.359 1.385-5.115 1.385zm-2.017-1.743c2.119.516 4.401.206 6.38-.94 2.749-1.593 4.297-4.447 4.143-7.635-.013-.257.107-.502.317-.649.22-.155.504-.484.763-.858-.068 0-.138 0-.206 0-.316-.01-.643-.001-.856.04-.254.051-.513-.032-.69-.22-.973-1.026-2.242-.896-3.034-.473-.804.431-1.552 1.374-1.242 2.73.052.229-.005.469-.156.648-.151.18-.381.279-.611.268-2.379-.115-4.634-1.082-6.356-2.695-.076.872.317 1.738 1.101 2.258.278.184.401.529.302.848-.1.318-.384.499-.73.527-.15-.003-.301-.015-.451-.036.334.687.971 1.2 1.751 1.358.34.069.589.363.601.71.012.348-.217.657-.552.749-.115.031-.233.057-.351.076.452.455 1.071.734 1.741.749.317.007.596.214.696.515.099.302-.002.634-.253.828-.695.538-1.48.943-2.307 1.202z"/></svg>