<svg xmlns="http://www.w3.org/2000/svg"  viewBox="0 0 36 36" width="288px" height="288px"><path fill="#EFEFEF" d="M8.114,5.564C6.309,12.241,1.61,15.891,0.74,19.109s-0.847,10.475,13.955,14.477s19.432-4.501,20.388-8.041	C39.564,8.973,11.311-6.262,8.114,5.564z"/><rect width="1" height="2" x="3.5" y="14.125" fill="#A4AFC1"/><rect width="1" height="2" x="3.5" y="19.875" fill="#A4AFC1"/><rect width="2" height="1" y="17.375" fill="#A4AFC1"/><path fill="#A4AFC1" d="M30,11.047c-0.827,0-1.5-0.673-1.5-1.5s0.673-1.5,1.5-1.5s1.5,0.673,1.5,1.5S30.827,11.047,30,11.047z M30,9.047c-0.276,0-0.5,0.225-0.5,0.5s0.224,0.5,0.5,0.5s0.5-0.225,0.5-0.5S30.276,9.047,30,9.047z"/><path fill="#F3F3F1" d="M9.271,23.221c0.793,0.632,1.702,1.068,2.686,1.304c0.565,0.136,1.131,0.197,1.709,0.213	c0.422,0.015,0.844,0.011,1.28,0.011h6.09c0.421,0,0.857,0.004,1.279-0.011c0.577-0.017,1.139-0.076,1.701-0.213	c0.984-0.238,1.885-0.673,2.687-1.306c1.62-1.271,2.548-3.19,2.548-5.22c0-2.032-0.928-3.951-2.523-5.222	c-0.792-0.632-1.699-1.068-2.686-1.302c-0.563-0.136-1.128-0.196-1.708-0.214c-0.421-0.014-0.843-0.009-1.279-0.009h-6.092	c-0.428,0-0.858-0.005-1.286,0.009c-0.579,0.02-1.146,0.077-1.711,0.214c-0.985,0.237-1.898,0.674-2.686,1.304	c-1.601,1.272-2.529,3.189-2.529,5.22C6.75,20.031,7.678,21.949,9.271,23.221z"/><path fill="#2FDF84" d="M12.221,16.198c0.296-0.209,0.636-0.333,0.99-0.39c0.354-0.057,0.708-0.057,1.077-0.057h7.432	c0.354,0,0.722-0.013,1.076,0.043s0.694,0.18,0.992,0.376c0.609,0.403,0.963,1.086,0.963,1.809c0,0.724-0.369,1.392-0.977,1.809	l0.029,0.03c-0.301,0.205-0.637,0.329-0.998,0.386c-0.36,0.057-0.718,0.045-1.078,0.045h-7.43c-0.36,0-0.719,0.013-1.081-0.045	c-0.36-0.058-0.693-0.181-0.997-0.386c-0.607-0.419-0.969-1.086-0.969-1.81C11.25,17.268,11.615,16.601,12.221,16.198z"/><path fill="#D5DBE1" d="M14.207,24.525c-0.984-0.237-1.893-0.673-2.686-1.304C9.928,21.949,9,20.031,9,17.999	c0-2.031,0.928-3.949,2.529-5.22c0.788-0.631,1.701-1.068,2.686-1.304c0.565-0.137,1.132-0.195,1.711-0.214	c0.428-0.014,0.858-0.009,1.286-0.009h-2.25c-0.428,0-0.858-0.005-1.286,0.009c-0.579,0.02-1.146,0.077-1.711,0.214	c-0.985,0.237-1.898,0.674-2.686,1.304c-1.601,1.271-2.529,3.189-2.529,5.22c0,2.033,0.928,3.951,2.521,5.222	c0.793,0.632,1.702,1.068,2.686,1.304c0.565,0.136,1.131,0.197,1.709,0.213c0.422,0.015,0.844,0.011,1.28,0.011h2.25	c-0.436,0-0.858,0.004-1.28-0.011C15.338,24.722,14.772,24.661,14.207,24.525z"/><path fill="#00B871" d="M14.469,19.817c-0.607-0.419-0.969-1.086-0.969-1.81c0-0.739,0.365-1.406,0.971-1.809	c0.296-0.209,0.636-0.333,0.99-0.39s0.708-0.057,1.077-0.057h-2.25c-0.369,0-0.723,0-1.077,0.057s-0.694,0.181-0.99,0.39	c-0.606,0.404-0.971,1.071-0.971,1.809c0,0.725,0.362,1.392,0.969,1.81c0.305,0.205,0.638,0.328,0.998,0.386	c0.361,0.058,0.72,0.045,1.081,0.045h2.25c-0.361,0-0.719,0.013-1.081-0.045C15.107,20.145,14.774,20.022,14.469,19.817z"/><g><path d="M14.521,25.5c-0.297,0-0.59-0.001-0.883-0.013c-0.675-0.019-1.284-0.095-1.856-0.232c-1.105-0.267-2.107-0.754-2.978-1.447 c0,0,0-0.001,0-0.001C7.021,22.385,6,20.268,6,17.999c0-2.271,1.025-4.389,2.813-5.808c0.864-0.692,1.867-1.18,2.978-1.446 c0.56-0.136,1.152-0.211,1.86-0.235c0.349-0.011,0.698-0.014,1.045-0.009h6.628c0.351-0.003,0.691-0.001,1.033,0.009 c0.684,0.021,1.293,0.099,1.861,0.236c1.101,0.261,2.103,0.747,2.977,1.444C28.978,13.611,30,15.729,30,17.999 c0,2.279-1.034,4.396-2.835,5.81c-0.879,0.694-1.879,1.181-2.973,1.445c-0.564,0.138-1.171,0.215-1.855,0.234 c-0.355,0.014-0.727,0.012-1.091,0.012h-6.516C14.66,25.5,14.59,25.5,14.521,25.5z M14.946,24h6.302 c0.343,0.002,0.696,0.002,1.039-0.011c0.583-0.018,1.089-0.08,1.551-0.192c0.882-0.214,1.689-0.606,2.399-1.167 c1.439-1.128,2.263-2.815,2.263-4.631c0-1.812-0.816-3.501-2.241-4.637c-0.699-0.558-1.504-0.947-2.391-1.158 c-0.469-0.113-0.977-0.177-1.558-0.194c-0.326-0.011-0.652-0.013-0.982-0.009h-6.635c-0.331-0.004-0.662-0.002-0.993,0.009 c-0.602,0.02-1.098,0.082-1.558,0.193c-0.896,0.215-1.702,0.605-2.395,1.16C8.318,14.499,7.5,16.188,7.5,17.999 c0,1.811,0.816,3.5,2.239,4.636c0.698,0.556,1.504,0.947,2.394,1.161c0.47,0.113,0.979,0.176,1.555,0.192 c0.348,0.014,0.693,0.013,1.039,0.012H14.946z"/></g><g><path d="M13.968,21c-0.278,0-0.565-0.007-0.871-0.057c-0.479-0.078-0.916-0.247-1.296-0.504c-0.817-0.563-1.3-1.472-1.3-2.433 c0-0.976,0.485-1.883,1.298-2.429c0.375-0.262,0.811-0.434,1.294-0.511c0.413-0.066,0.811-0.066,1.196-0.066L21.882,15 c0.313,0.001,0.671-0.003,1.03,0.053c0.473,0.075,0.906,0.239,1.288,0.49c0.815,0.539,1.3,1.449,1.3,2.436 c0,0.875-0.404,1.706-1.093,2.271c-0.048,0.073-0.109,0.139-0.183,0.188c-0.382,0.261-0.821,0.431-1.303,0.507 c-0.37,0.058-0.709,0.063-1.049,0.055L14.138,21C14.082,21,14.025,21,13.968,21z M14.288,16.501c-0.341,0-0.664,0-0.958,0.047 c-0.26,0.042-0.488,0.131-0.678,0.264c-0.005,0.003-0.009,0.007-0.015,0.01C12.232,17.092,12,17.523,12,18.007 c0,0.476,0.235,0.91,0.646,1.193c0.195,0.132,0.424,0.219,0.692,0.263c0.245,0.04,0.512,0.038,0.792,0.037l7.749-0.001 c0.286,0.005,0.559,0.003,0.81-0.037c0.193-0.03,0.366-0.084,0.523-0.164c0.039-0.049,0.085-0.092,0.137-0.128 C23.756,18.89,24,18.444,24,17.979c0-0.481-0.234-0.924-0.626-1.183c-0.2-0.132-0.435-0.22-0.695-0.261 c-0.238-0.038-0.506-0.035-0.788-0.035L14.288,16.501z"/></g></svg>